<?xml version="1.0" encoding="UTF-8" standalone="no"?>
<svg
   xmlns:dc="http://purl.org/dc/elements/1.1/"
   xmlns:cc="http://creativecommons.org/ns#"
   xmlns:rdf="http://www.w3.org/1999/02/22-rdf-syntax-ns#"
   xmlns:svg="http://www.w3.org/2000/svg"
   xmlns="http://www.w3.org/2000/svg"
   xmlns:sodipodi="http://sodipodi.sourceforge.net/DTD/sodipodi-0.dtd"
   xmlns:inkscape="http://www.inkscape.org/namespaces/inkscape"
   inkscape:version="1.0 (4035a4f, 2020-05-01)"
   height="296.48001"
   width="160.67363"
   sodipodi:docname="POPE.svg"
   id="svg363"
   viewBox="8.87 9.3 160.67363 296.48"
   version="1.1"
   preserveAspectRatio="xMidYMid">
  <metadata
     id="metadata369">
    <rdf:RDF>
      <cc:Work
         rdf:about="">
        <dc:format>image/svg+xml</dc:format>
        <dc:type
           rdf:resource="http://purl.org/dc/dcmitype/StillImage" />
        <dc:title></dc:title>
      </cc:Work>
    </rdf:RDF>
  </metadata>
  <defs
     id="defs367" />
  <sodipodi:namedview
     inkscape:current-layer="svg363"
     inkscape:window-maximized="0"
     inkscape:window-y="23"
     inkscape:window-x="0"
     inkscape:cy="71.666886"
     inkscape:cx="-16.989656"
     inkscape:zoom="1.4543874"
     fit-margin-bottom="0"
     fit-margin-right="0"
     fit-margin-left="0"
     fit-margin-top="0"
     showgrid="false"
     id="namedview365"
     inkscape:window-height="979"
     inkscape:window-width="1706"
     inkscape:pageshadow="2"
     inkscape:pageopacity="0"
     guidetolerance="10"
     gridtolerance="10"
     objecttolerance="10"
     borderopacity="1"
     bordercolor="#666666"
     pagecolor="#ffffff" />
  <clipPath
     id="a">
    <rect
       id="rect2"
       height="719.15002"
       width="539.40002"
       y="0.30000001"
       x="0.30000001" />
  </clipPath>
  <g
     transform="translate(-78.31294,-90.939995)"
     id="g15"
     stroke-width="0"
     shape-rendering="geometricPrecision"
     fill-rule="evenodd">
    <path
       id="path5"
       d="m 105.35,384.1 h -0.7 l 7.2,-12.47 h 0.7 z m 7.2,-12.47 h -0.7 l -7.2,-12.47 h 0.7 z" />
    <path
       id="path7"
       d="m 105.35,359.16 h -0.7 l 7.2,-12.47 h 0.7 z m 7.2,-12.47 h -0.7 l -7.2,-12.47 h 0.7 z" />
    <path
       id="path9"
       d="m 105.35,334.22 h -0.7 l 7.2,-12.47 h 0.7 z m 7.2,-12.47 h -0.7 l -7.2,-12.47 h 0.7 z m -7.2,-12.47 h -0.7 l 7.2,-12.47 h 0.7 z" />
    <path
       id="path11"
       d="m 112.55,296.81 h -0.7 l -7.2,-12.48 h 0.7 z m -7.2,-12.48 h -0.7 l 7.2,-12.47 h 0.7 z" />
    <path
       id="path13"
       d="m 112.55,271.86 h -0.7 l -7.18,-12.42 h 0.7 z m -7.18,-12.42 h -0.7 l 7.18,-12.43 h 0.7 z m 7.18,-12.43 h -0.7 l -7.2,-12.47 h 0.7 z m -7.2,-12.47 h -0.7 l 7.2,-12.47 h 0.7 z m -0.7,149.56 h 0.7 l 7.11,12.32 -0.52,0.3 z m 7.9,-162.03 h -0.7 l -7.2,-12.47 h 0.7 z" />
  </g>
  <path
     style="fill:#000000"
     id="path17"
     aria-label="O"
     fill="#008000"
     d="m 30.46706,106.6 q 0,-1.7822 0.95703,-2.7881 0.95703,-1.0107 2.4707,-1.0107 0.99121,0 1.7871,0.47363 0.79589,0.47363 1.2109,1.3232 0.41992,0.84473 0.41992,1.9189 0,1.0889 -0.43945,1.9482 -0.43945,0.8593 -1.2451,1.3037 -0.80566,0.43945 -1.7383,0.43945 -1.0107,0 -1.8066,-0.48828 -0.7959,-0.48828 -1.2061,-1.333 -0.4102,-0.84472 -0.41016,-1.7871 z m 0.97656,0.0147 q 0,1.2939 0.69336,2.041 0.69824,0.74219 1.748,0.74219 1.0693,0 1.7578,-0.75195 0.69336,-0.75195 0.69336,-2.1338 0,-0.87402 -0.29785,-1.5234 -0.29297,-0.6543 -0.86426,-1.0107 -0.56641,-0.36133 -1.2744,-0.36133 -1.0059,0 -1.7334,0.69336 -0.72266,0.68848 -0.72266,2.3047 z" />
  <path
     id="path19"
     stroke-width="0"
     shape-rendering="geometricPrecision"
     fill-rule="evenodd"
     d="m 27.03706,118.66 h -0.7 l 4.43,-7.66 0.52,0.3 z" />
  <path
     id="path21"
     aria-label="O"
     d="m 8.87006,119.07 q 0,-1.7822 0.95703,-2.7881 0.95703,-1.0107 2.4707,-1.0107 0.99121,0 1.7871,0.47363 0.79589,0.47363 1.2109,1.3232 0.41992,0.84473 0.41992,1.9189 0,1.0889 -0.43945,1.9482 -0.43945,0.8593 -1.2451,1.3037 -0.80566,0.43945 -1.7383,0.43945 -1.0107,0 -1.8066,-0.48828 -0.7959,-0.48828 -1.2061,-1.333 -0.4102,-0.84472 -0.41016,-1.7871 z m 0.97656,0.0147 q 0,1.2939 0.69336,2.041 0.69824,0.74219 1.748,0.74219 1.0693,0 1.7578,-0.75195 0.69336,-0.75195 0.69336,-2.1338 0,-0.87402 -0.29785,-1.5234 -0.29297,-0.6543 -0.86426,-1.0107 -0.56641,-0.36133 -1.2744,-0.36133 -1.0059,0 -1.7334,0.69336 -0.72266,0.68848 -0.72266,2.3047 z" />
  <path
     id="path23"
     stroke-width="0.6"
     stroke="#000000"
     shape-rendering="auto"
     d="m 26.68706,119.96 h -9.3" />
  <path
     d="m 26.91706,117.66 0.35,-0.59999 h -9.88 V 117.66 Z m 0.35,2.6 -0.35,-0.6 h -9.53 v 0.6 z"
     id="path25"
     style="fill-rule:evenodd;stroke-width:0;shape-rendering:geometricPrecision" />
  <path
     d="m 38.98706,106.47001 v -0.6 l 9.19,-0.03 0.26,0.6 z"
     fill="#008000"
     id="path27"
     style="fill-rule:evenodd;stroke-width:0;shape-rendering:geometricPrecision;fill:#000000" />
  <path
     d="m 48.43706,106.44001 -0.26,-0.6 10,-10.170005 0.31,0.11 0.01,0.42 z"
     fill="#008000"
     id="path29"
     style="fill-rule:evenodd;stroke-width:0;shape-rendering:geometricPrecision;fill:#000000" />
  <path
     style="fill:#000000"
     id="path33"
     aria-label="O"
     fill="#008000"
     d="m 66.387059,106.6 q 0,-1.7822 0.95703,-2.7881 0.95703,-1.0107 2.4707,-1.0107 0.99121,0 1.7871,0.47363 0.79589,0.47363 1.2109,1.3232 0.41992,0.84473 0.41992,1.9189 0,1.0889 -0.43945,1.9482 -0.43945,0.8593 -1.2451,1.3037 -0.80566,0.43945 -1.7383,0.43945 -1.0107,0 -1.8066,-0.48828 -0.7959,-0.48828 -1.2061,-1.333 -0.4102,-0.84472 -0.41016,-1.7871 z m 0.97656,0.0147 q 0,1.2939 0.69336,2.041 0.69824,0.74219 1.748,0.74219 1.0693,0 1.7578,-0.75195 0.69336,-0.75195 0.69336,-2.1338 0,-0.87402 -0.29785,-1.5234 -0.29297,-0.6543 -0.86426,-1.0107 -0.56641,-0.36133 -1.2744,-0.36133 -1.0059,0 -1.7334,0.69336 -0.72266,0.68848 -0.72266,2.3047 z" />
  <path
     style="fill:#000000"
     id="path35"
     stroke-width="0"
     shape-rendering="geometricPrecision"
     fill-rule="evenodd"
     fill="#008000"
     d="m 58.497059,96.2 -0.01,-0.42 0.31,-0.12 7.42,6.82 -0.21,0.22 -0.2,0.22 z" />
  <path
     id="path37"
     stroke-width="0"
     shape-rendering="geometricPrecision"
     fill-rule="evenodd"
     d="m 66.627059,111.1 0.52,0.3 -4.19,7.26 h -0.7 z m -4.37,7.56 h 0.7 l 7.2,12.47 h -0.7 z" />
  <path
     id="path39"
     aria-label="O"
     d="m 44.78706,119.07 q 0,-1.7822 0.95703,-2.7881 0.95703,-1.0107 2.4707,-1.0107 0.99121,0 1.7871,0.47363 0.79589,0.47363 1.2109,1.3232 0.41992,0.84473 0.41992,1.9189 0,1.0889 -0.43945,1.9482 -0.43945,0.8593 -1.2451,1.3037 -0.80566,0.43945 -1.7383,0.43945 -1.0107,0 -1.8066,-0.48828 -0.7959,-0.48828 -1.2061,-1.333 -0.4102,-0.84472 -0.41016,-1.7871 z m 0.97656,0.0147 q 0,1.2939 0.69336,2.041 0.69824,0.74219 1.748,0.74219 1.0693,0 1.7578,-0.75195 0.69336,-0.75195 0.69336,-2.1338 0,-0.87402 -0.29785,-1.5234 -0.29297,-0.6543 -0.86426,-1.0107 -0.56641,-0.36133 -1.2744,-0.36133 -1.0059,0 -1.7334,0.69336 -0.72266,0.68848 -0.72266,2.3047 z" />
  <path
     id="path41"
     stroke-width="0.6"
     stroke="#000000"
     shape-rendering="auto"
     d="m 62.607059,119.96 h -9.32" />
  <path
     id="path43"
     stroke-width="0"
     shape-rendering="geometricPrecision"
     fill-rule="evenodd"
     d="m 62.837059,117.66 0.35,-0.6 h -9.9 v 0.6 z m 0.35,2.6 -0.35,-0.6 h -9.55 v 0.6 z m 6.27,10.87 h 0.7 l -7.2,12.47 h -0.7 z m -7.2,12.47 h 0.7 l 7.2,12.47 h -0.7 z m 7.2,12.47 h 0.7 l -7.17,12.43001 h -0.7 z m -7.17,12.43001 h 0.7 l 7.17,12.41999 h -0.7 z m 7.17,12.41999 h 0.7 l -7.17,12.43 h -0.7 z m -7.17,12.43 h 0.7 l 7.17,12.43001 h -0.7 z m 7.17,12.43001 h 0.7 l -7.17,12.43 h -0.7 z" />
  <path
     id="path45"
     stroke-width="0"
     shape-rendering="geometricPrecision"
     fill-rule="evenodd"
     d="m 62.287059,218.21 h 0.7 l 6.99,12.12 -0.34,0.6 z" />
  <path
     id="path47"
     stroke-width="0.6"
     stroke="#000000"
     shape-rendering="auto"
     d="m 65.617059,218.21 5.68,9.84" />
  <path
     d="m 69.63706,230.93 0.34,-0.6 h 14.35 l -0.34,0.6 z m 14.35,0 0.34,-0.6 7.18,12.43 -0.34,0.6 z"
     id="path49"
     style="fill-rule:evenodd;stroke-width:0;shape-rendering:geometricPrecision" />
  <path
     d="m 91.16706,243.36 0.34,-0.6 h 14.35 l -0.34,0.6 z m 14.35,0 0.34,-0.6 7.17,12.43 -0.34,0.6 z m 7.17,12.43 0.34,-0.6 h 14.35 l -0.34,0.6 z m 14.35,0 0.34,-0.6 7.18,12.43 -0.34,0.60001 z"
     id="path51"
     style="fill-rule:evenodd;stroke-width:0;shape-rendering:geometricPrecision" />
  <path
     d="m 134.21706,268.22001 0.34,-0.60001 h 14.35 l -0.34,0.60001 z"
     id="path53"
     style="fill-rule:evenodd;stroke-width:0;shape-rendering:geometricPrecision" />
  <path
     d="m 148.56706,268.22001 0.34,-0.60001 7.26,12.57 -0.52,0.3 z"
     id="path55"
     style="fill-rule:evenodd;stroke-width:0;shape-rendering:geometricPrecision" />
  <path
     d="m 58.79706,95.660005 -0.31,0.12 -0.31,-0.11 -1.15,-13.79 1.46,-0.5 1.55,-0.55 z"
     fill="#008000"
     id="path57"
     style="fill-rule:evenodd;stroke-width:0;shape-rendering:geometricPrecision;fill:#000000" />
  <path
     style="fill:#d45500"
     id="path61"
     aria-label="O"
     fill="#008000"
     d="m 67.537059,74.59 q 0,-1.7822 0.95703,-2.7881 0.95703,-1.0107 2.4707,-1.0107 0.99121,0 1.7871,0.47363 0.79589,0.47363 1.2109,1.3232 0.41992,0.84473 0.41992,1.9189 0,1.0889 -0.43945,1.9482 -0.43945,0.8593 -1.2451,1.3037 -0.80566,0.43945 -1.7383,0.43945 -1.0107,0 -1.8066,-0.48828 -0.7959,-0.48828 -1.2061,-1.333 -0.4102,-0.84472 -0.41016,-1.7871 z m 0.97656,0.0146 q 0,1.2939 0.69336,2.041 0.69824,0.74219 1.748,0.74219 1.0693,0 1.7578,-0.75195 0.69336,-0.75195 0.69336,-2.1338 0,-0.87402 -0.29785,-1.5234 -0.29297,-0.6543 -0.86426,-1.0107 -0.56641,-0.36133 -1.2744,-0.36133 -1.0059,0 -1.7334,0.69336 -0.72266,0.68848 -0.72266,2.3047 z" />
  <path
     style="fill:#000000"
     id="path63"
     stroke-width="0"
     shape-rendering="geometricPrecision"
     fill-rule="evenodd"
     fill="#008000"
     d="m 60.037059,80.83 -1.55,0.55 -1.46,0.5 9.22,-5.33 0.3,0.52 z" />
  <g
     style="fill:#d45500"
     transform="translate(-78.31294,-90.939995)"
     id="g71"
     fill="#d40000">
    <path
       style="fill:#d45500"
       id="path65"
       aria-label="P"
       fill="#d40000"
       d="m 146.72,154.62 v -7.1582 h 2.7002 q 0.71289,0 1.0889,0.0684 0.52734,0.0879 0.88379,0.33691 0.35645,0.24414 0.57129,0.68848 0.21973,0.44434 0.21973,0.97656 0,0.91309 -0.58105,1.5479 -0.58105,0.62988 -2.0996,0.62988 h -1.8359 v 2.9102 z m 0.94727,-3.7549 h 1.8506 q 0.91797,0 1.3037,-0.3418 0.38573,-0.3418 0.38574,-0.96191 0,-0.44922 -0.22949,-0.7666 -0.22461,-0.32227 -0.5957,-0.4248 -0.23926,-0.0635 -0.88379,-0.0635 h -1.8311 z" />
    <path
       style="fill:#d45500"
       id="path67"
       stroke-width="0"
       shape-rendering="geometricPrecision"
       fill-rule="evenodd"
       d="m 149.57,160.2 h -0.6 v -3.9 h 0.6 z" />
    <path
       style="fill:#d45500"
       id="path69"
       aria-label="O"
       fill="#d40000"
       d="m 133.38,143.93 q 0,-1.7822 0.95703,-2.7881 0.95703,-1.0107 2.4707,-1.0107 0.99121,0 1.7871,0.47363 0.79589,0.47363 1.2109,1.3232 0.41992,0.84473 0.41992,1.9189 0,1.0889 -0.43945,1.9482 -0.43945,0.8593 -1.2451,1.3037 -0.80566,0.43945 -1.7383,0.43945 -1.0107,0 -1.8066,-0.48828 -0.7959,-0.48828 -1.2061,-1.333 -0.4102,-0.84472 -0.41016,-1.7871 z m 0.97656,0.0146 q 0,1.2939 0.69336,2.041 0.69824,0.74219 1.748,0.74219 1.0693,0 1.7578,-0.75195 0.69336,-0.75195 0.69336,-2.1338 0,-0.87402 -0.29785,-1.5234 -0.29297,-0.6543 -0.86426,-1.0107 -0.56641,-0.36133 -1.2744,-0.36133 -1.0059,0 -1.7334,0.69336 -0.72266,0.68848 -0.72266,2.3047 z" />
  </g>
  <path
     style="fill:#d45500"
     id="path73"
     stroke-width="0.6"
     stroke="#800000"
     shape-rendering="auto"
     d="m 66.597059,58.43 -3.73,-2.15" />
  <path
     style="fill:#d45500"
     id="path75"
     stroke-width="0"
     shape-rendering="geometricPrecision"
     fill-rule="evenodd"
     fill="#d40000"
     d="m 67.457059,56.94 0.3,-0.52 -3.73,-2.15 -0.3,0.52 z m -1.01,1.75 0.3,-0.52 -3.73,-2.15 -0.3,0.52 z" />
  <path
     style="fill:#d45500"
     id="path79"
     stroke-width="0"
     shape-rendering="geometricPrecision"
     fill-rule="evenodd"
     fill="#d40000"
     d="m 75.427059,57.55 -0.3,-0.52 0.42,-0.46 0.49,0.84 z m 3.41,-0.8 -1.31,-2.28 0.42,-0.46 1.5,2.6 z" />
  <g
     style="fill:#d45500"
     transform="translate(-78.31294,-90.939995)"
     id="g87"
     fill="#d40000">
    <path
       style="fill:#d45500"
       id="path81"
       aria-label="O"
       fill="#d40000"
       d="m 158.32,158.33 q 0,-1.7822 0.95703,-2.7881 0.95703,-1.0107 2.4707,-1.0107 0.99121,0 1.7871,0.47363 0.79589,0.47363 1.2109,1.3232 0.41992,0.84473 0.41992,1.9189 0,1.0889 -0.43945,1.9482 -0.43945,0.8593 -1.2451,1.3037 -0.80566,0.43945 -1.7383,0.43945 -1.0107,0 -1.8066,-0.48828 -0.7959,-0.48828 -1.2061,-1.333 -0.4102,-0.84472 -0.41016,-1.7871 z m 0.97656,0.0146 q 0,1.2939 0.69336,2.041 0.69824,0.74219 1.748,0.74219 1.0693,0 1.7578,-0.75195 0.69336,-0.75195 0.69336,-2.1338 0,-0.87402 -0.29785,-1.5234 -0.29297,-0.6543 -0.86426,-1.0107 -0.56641,-0.36133 -1.2744,-0.36133 -1.0059,0 -1.7334,0.69336 -0.72266,0.68848 -0.72266,2.3047 z" />
    <path
       style="fill:#d45500"
       id="path83"
       stroke-width="0"
       shape-rendering="geometricPrecision"
       fill-rule="evenodd"
       d="m 152.2,152.76 0.3,-0.52 5.36,1.71 -1.5,2.6 z" />
    <path
       style="fill:#d45500"
       id="path85"
       stroke-width="0.48"
       stroke="#d40000"
       shape-rendering="auto"
       d="m 166.25,155.16 h 3.94" />
  </g>
  <path
     style="fill:#d45500"
     id="path99"
     aria-label="O"
     d="m 80.007059,52.99 q 0,-1.7822 0.95703,-2.7881 0.95703,-1.0107 2.4707,-1.0107 0.99121,0 1.7871,0.47363 0.79589,0.47363 1.2109,1.3232 0.41992,0.84473 0.41992,1.9189 0,1.0889 -0.43945,1.9482 -0.43945,0.8593 -1.2451,1.3037 -0.80566,0.43945 -1.7383,0.43945 -1.0107,0 -1.8066,-0.48828 -0.7959,-0.48828 -1.2061,-1.333 -0.4102,-0.84472 -0.41016,-1.7871 z m 0.97656,0.0146 q 0,1.2939 0.69336,2.041 0.69824,0.74219 1.748,0.74219 1.0693,0 1.7578,-0.75195 0.69336,-0.75195 0.69336,-2.1338 0,-0.87402 -0.29785,-1.5234 -0.29297,-0.6543 -0.86426,-1.0107 -0.56641,-0.36133 -1.2744,-0.36133 -1.0059,0 -1.7334,0.69336 -0.72266,0.68848 -0.72266,2.3047 z" />
  <path
     style="fill:#0000ff"
     id="path101"
     stroke-width="0"
     shape-rendering="geometricPrecision"
     fill-rule="evenodd"
     d="m 83.724059,47.66 h -0.6 v -9.65 l 0.6,0.34 z" />
  <path
     style="fill:#0000ff"
     id="path103"
     stroke-width="0"
     shape-rendering="geometricPrecision"
     fill-rule="evenodd"
     d="m 83.724059,38.35 -0.6,-0.34 12.47,-7.2 0.6,0.34 z" />
  <path
     style="fill:#0000ff"
     id="path105"
     aria-label="NH3"
     d="m 93.054059,20.48 v -7.1582 h 0.97168 l 3.7598,5.6201 v -5.6201 h 0.9082 V 20.48 h -0.97168 l -3.7598,-5.625 v 5.625 z m 7.270001,0 v -7.1582 h 0.94727 v 2.9395 h 3.7207 v -2.9395 h 0.94727 V 20.48 h -0.94727 v -3.374 h -3.7207 v 3.374 z m 6.74,0.84 0.65918,-0.0879 q 0.11353,0.5603 0.38452,0.80933 0.27466,0.24536 0.6665,0.24536 0.46509,0 0.78369,-0.32227 0.32227,-0.32227 0.32227,-0.79834 0,-0.4541 -0.29663,-0.74707 -0.29663,-0.29663 -0.75439,-0.29663 -0.18677,0 -0.46509,0.0732 l 0.0732,-0.57861 q 0.0659,0.007 0.1062,0.007 0.42114,0 0.75806,-0.21973 0.33692,-0.21973 0.33691,-0.67749 0,-0.36255 -0.24536,-0.60059 -0.24536,-0.23804 -0.63354,-0.23804 -0.38452,0 -0.64087,0.2417 -0.25635,0.2417 -0.32959,0.7251 l -0.65918,-0.11719 q 0.12085,-0.66284 0.54932,-1.0254 0.42847,-0.36621 1.0657,-0.36621 0.43945,0 0.80933,0.19043 0.36987,0.18677 0.56396,0.5127 0.19775,0.32593 0.19775,0.69214 0,0.3479 -0.18677,0.63354 -0.18677,0.28564 -0.55298,0.4541 0.47607,0.10986 0.73975,0.45776 0.26367,0.34424 0.26367,0.86426 0,0.70312 -0.5127,1.1938 -0.5127,0.48706 -1.2964,0.48706 -0.70679,0 -1.1755,-0.42114 -0.46509,-0.42114 -0.53101,-1.0913 z" />
  <path
     style="fill:#0000ff;stroke:#0000ff"
     id="path107"
     stroke-width="0.48"
     stroke="#000000"
     shape-rendering="auto"
     d="m 89.244059,11.27 h 3.94 m -1.97,-1.97 v 3.94" />
  <path
     style="fill:#0000ff"
     sodipodi:nodetypes="ccccc"
     d="m 96.194059,31.15 c -0.6,-0.34 -0.40075,-0.22709 -0.6,-0.34 v -9.26 h 0.6 z"
     fill-rule="evenodd"
     shape-rendering="geometricPrecision"
     stroke-width="0"
     id="path359" />
  <text
     transform="rotate(-90)"
     id="text1740"
     y="167.77409"
     x="-302.03094"
     style="font-size:8px;line-height:1.25;font-family:Helvetica;-inkscape-font-specification:Helvetica;fill:#999999"
     xml:space="preserve"><tspan
       style="font-size:8px;fill:#999999"
       y="167.77409"
       x="-302.03094"
       id="tspan1738"
       sodipodi:role="line">Adapted from https://commons.wikimedia.org/wiki/File:Membrane_Lipids.svg</tspan></text>
</svg>
